<svg xmlns="http://www.w3.org/2000/svg" viewBox="0 0 322.5 215"><defs><style>.cls-1{fill:#fff;}.cls-2,.cls-3,.cls-4{fill:#82e600;}.cls-3{fill-rule:evenodd;}.cls-4{font-size:22.08px;font-family:AvenirLTStd-Black, Avenir LT Std;font-weight:800;letter-spacing:0.06em;}</style></defs><g id="图层_2" data-name="图层 2"><g id="图层_1-2" data-name="图层 1"><rect class="cls-1" width="322.5" height="215" rx="6"/><rect x="138.01" y="103.17" width="0.61" height="50.22"/><path class="cls-2" d="M66.64,130.73A8.62,8.62,0,0,0,71.83,129v1.72a5.2,5.2,0,0,0,10.39,0v-8.61A5.18,5.18,0,0,1,87.41,117a5.24,5.24,0,0,1,1.73.3v-3.57a9,9,0,0,0-1.73-.17,8.62,8.62,0,0,0-5.19,1.72v-1.72H78.76v17.22a1.74,1.74,0,0,1-3.47,0v-8.61a8.65,8.65,0,1,0-8.65,8.61Zm0-13.78a5.17,5.17,0,1,1-5.19,5.17A5.18,5.18,0,0,1,66.64,117Z"/><path class="cls-2" d="M105.51,129.61l-1.7-3a5.18,5.18,0,0,1-7.75-4.49V111.78a5.17,5.17,0,0,1,5.19-5.16v-3.45a8.63,8.63,0,0,0-8.65,8.61h0v10.34h0a8.59,8.59,0,0,0,4.31,7.45h0v.3a19.89,19.89,0,0,1-39.78,0v-.3a12,12,0,0,1-1.73-3,5.17,5.17,0,1,1,0-8.94,12,12,0,0,1,1.73-3,8.62,8.62,0,1,0-3.44,16,23.35,23.35,0,0,0,46.66,0c.3,0,.6,0,.9,0A8.65,8.65,0,0,0,105.51,129.61Z"/><path class="cls-2" d="M90.47,133.94a.63.63,0,0,0-.62-.63.65.65,0,0,0-.51.28h0a13.87,13.87,0,0,1-24.61,0h0a.65.65,0,0,0-.51-.28.63.63,0,0,0-.63.63.42.42,0,0,0,0,.16h0a13.86,13.86,0,0,0,26.85,0h0A.41.41,0,0,0,90.47,133.94Z"/><path class="cls-3" d="M101.25,107.65a4.19,4.19,0,0,1,2.74,1,5.07,5.07,0,0,0-.61,1.09,2.93,2.93,0,1,0,0,4,4.84,4.84,0,0,0,.61,1.09,4.14,4.14,0,1,1-2.74-7.24Z"/><path class="cls-3" d="M112.5,111.78v4.12h-1.21v-1.2a4.13,4.13,0,1,1,0-5.84v-1.22h1.21v4.14Zm-4.16-2.92a2.93,2.93,0,1,0,3,2.92A2.93,2.93,0,0,0,108.34,108.86Z"/><path class="cls-3" d="M124.56,113.25l1,.6a4.12,4.12,0,1,1,.56-2.07,4.3,4.3,0,0,1,0,.61h-7a3,3,0,0,0,5.43.86Zm.33-2.07a2.95,2.95,0,0,0-5.76,0Z"/><path class="cls-3" d="M113.71,107.65h1.21v1.21a4.14,4.14,0,0,1,2.94-1.21v1.21a2.93,2.93,0,0,0-2.94,2.92v4.13h-1.21v-8.26Z"/><text class="cls-4" transform="translate(150.41 124.7)">CARLCARE<tspan x="0" y="24.68">SERVICE</tspan></text></g></g></svg>